# xmcd CD database file
#
# Track frame offsets:
#	150
#	15954
#	38451
#	70580
#	106194
#	125338
#	148977
#	173648
#	189582
#	210789
#
# Disc length: 2962 seconds
#
# Revision: 0
# Processed by: cddbd v1.4PL0 Copyright (c) Steve Scherf et al.
# Submitted via: CDex 1.50Beta3
#
DISCID=750b900a
DTITLE=Richard Galliano - Viaggio
DYEAR=1900
DGENRE=Jazz
TTITLE0=Waltz for Nicky
TTITLE1=Java indigo
TTITLE2=Viaggio
TTITLE3=Billie
TTITLE4=Tango pour Claude
TTITLE5=Christopher's bossa
TTITLE6=Coloriage
TTITLE7=Romance
TTITLE8=Little muse
TTITLE9=La liberte est une fleur
EXTD=
EXTT0=
EXTT1=
EXTT2=
EXTT3=
EXTT4=
EXTT5=
EXTT6=
EXTT7=
EXTT8=
EXTT9=
PLAYORDER=
